# xmcd
#
# Track frame offsets:
#	150
#	21805
#	44195
#	63695
#	78785
#	99545
#	114002
#	143767
#	158657
#	171925
#
# Disc length: 2553 seconds
#
# Revision: 1
# Processed by: cddbd v1.5.2PL0 Copyright (c) Steve Scherf et al.
# Submitted via: audiograbber 1.83.01
#
DISCID=7c09f70a
DTITLE=Doc Savage - Godzone Blues
DYEAR=2002
DGENRE=Blues
TTITLE0=Dirty Water
TTITLE1=Blue Candle
TTITLE2=Hatched Matched Dispatched
TTITLE3=Bagland Bill
TTITLE4=Lustlite
TTITLE5=Freedom
TTITLE6=Godzone Blues
TTITLE7=Wasted Wishes
TTITLE8=Missing Missing You
TTITLE9=Fairyland
EXTD=
EXTT0=
EXTT1=
EXTT2=
EXTT3=
EXTT4=
EXTT5=
EXTT6=
EXTT7=
EXTT8=
EXTT9=
PLAYORDER=
